<svg width="137" height="137" viewBox="0 0 137 137" fill="none"
    xmlns="http://www.w3.org/2000/svg">
    <style>
        path {
          fill: #010114;
        }
        @media (prefers-color-scheme: dark) {
          path {
            fill: #ffffff;
          }
        }
    </style>
    <path d="M28 125.959L46.5351 136.685V90.6271L28 79.5019V125.959Z" fill="#010114"/>
    <path d="M84.1008 69.1164L63.5257 58.3611L29.4767 76.9907L48.0409 88.1256L84.1008 69.1164Z" fill="#010114"/>
    <path d="M29.5449 10.9987L87.2485 43.7708L107.085 32.7819L49.7995 0L29.5449 10.9987Z" fill="#010114"/>
    <path d="M85.7813 46.2917L28 13.4806V34.9426L64.2056 55.4216L82.5075 64.9895L85.7813 66.7025V46.2917Z" fill="#010114"/>
    <path d="M88.6957 69.1164C88.6957 69.243 88.6763 69.3792 88.6471 69.496C88.6374 69.5447 88.6083 69.5836 88.5986 69.6226C88.5694 69.7004 88.5403 69.7783 88.5014 69.8464V69.8659C88.482 69.9048 88.4431 69.934 88.414 69.973C88.3751 70.0314 88.3266 70.0898 88.278 70.1384C88.278 70.1384 88.2683 70.1579 88.2586 70.1676C88.2294 70.1968 88.1809 70.2163 88.142 70.2455C88.0934 70.2844 88.0546 70.3234 88.006 70.3526C87.9963 70.3526 87.9769 70.3623 87.9671 70.372C87.9574 70.372 87.9477 70.3915 87.9283 70.4012L49.4592 90.6758V136.744L69.1309 125.93V102.278C69.1309 101.733 69.432 101.236 69.9081 100.983L108.601 80.6407V35.2833L88.6957 46.3112V69.1164V69.1164Z" fill="#010114"/>
</svg>
