<svg width="421" height="70" viewBox="0 0 421 70" fill="none" xmlns="http://www.w3.org/2000/svg">
<path d="M67.8361 59.6792V11.5627H87.6654C92.8649 11.5627 97.0432 12.92 100.2 15.6403C103.357 18.3606 104.939 22.3111 104.939 27.5092C104.939 30.7781 104.209 33.6313 102.75 36.057C101.291 38.4886 99.3015 40.3598 96.7747 41.6825C94.2479 43.0051 91.3301 43.6693 88.0272 43.6693H80.4468V59.685H67.8361V59.6792ZM80.4468 33.6371H86.5683C88.319 33.6371 89.702 33.0826 90.7232 31.9795C91.7445 30.8763 92.2522 29.4555 92.2522 27.7229C92.2522 25.8978 91.7678 24.4308 90.7933 23.3219C89.8187 22.2187 88.389 21.6643 86.4924 21.6643H80.4409V33.6371H80.4468Z" fill="white"/>
<path d="M101.437 59.6792L119.294 11.5627H134.093L151.297 59.6792H137.373L134.239 49.7221H117.987L114.778 59.6792H101.437ZM120.607 40.4176H131.613L126.221 22.7443L120.607 40.4176Z" fill="white"/>
<path d="M156.689 59.6792V11.5627H176.81C182.009 11.5627 186.188 12.8969 189.345 15.5652C192.502 18.2336 194.083 22.1667 194.083 27.359C194.083 30.4836 193.377 33.227 191.971 35.5834C190.558 37.9399 188.691 39.817 186.357 41.2089L196.779 59.6792H182.931L174.692 43.3054H169.299V59.6792H156.689V59.6792ZM169.299 33.2732H175.567C177.265 33.2732 178.654 32.7592 179.722 31.7196C180.79 30.6857 181.327 29.3054 181.327 27.5727C181.327 25.7476 180.819 24.3037 179.798 23.2468C178.776 22.1898 177.341 21.6585 175.497 21.6585H169.299V33.2732V33.2732Z" fill="white"/>
<path d="M199.113 59.6792L216.97 11.5627H231.769L248.973 59.6792H235.049L231.915 49.7221H215.663L212.454 59.6792H199.113V59.6792ZM218.283 40.4176H229.289L223.897 22.7443L218.283 40.4176Z" fill="white"/>
<path d="M253.344 59.6792L255.602 11.5627H267.921L279.732 32.557L291.322 11.5627H303.711L305.969 59.6792H292.921L291.753 31.4712L283.228 47.9201H276.155L266.678 31.4712L265.733 59.6792H253.344Z" fill="white"/>
<path d="M314.425 59.6792V11.5627H327.327V59.6792H314.425Z" fill="white"/>
<path d="M336.804 59.6792V11.5627H370.697V22.7443H349.707V32.0488H365.959V42.5835H349.707V59.6792H336.804V59.6792Z" fill="white"/>
<path d="M390.742 59.6792V40.487L373.469 11.557H388.268L397.745 28.7279L406.639 11.557H421L403.651 40.4119V59.6735H390.748L390.742 59.6792Z" fill="white"/>
<path d="M0 64.3731L9.58965 69.8548V46.3162L0 40.6305V64.3731Z" fill="white"/>
<path d="M29.0253 35.3228L18.3802 29.8262L0.763977 39.3471L10.3687 45.0377L29.0253 35.3228Z" fill="white"/>
<path d="M0.763977 39.3472L10.3687 45.0378L0.763977 39.3472Z" fill="white"/>
<path d="M0.804138 5.62102L30.6537 22.3697L40.9168 16.7536L11.2784 0L0.804138 5.62102Z" fill="white"/>
<path d="M29.8948 23.658L0 6.88452V17.8579L18.732 28.324L28.201 33.2138L29.8948 34.0893V23.658Z" fill="white"/>
<path d="M18.7421 28.329L28.201 33.2138L18.732 28.324L18.7421 28.329Z" fill="white"/>
<path d="M31.4026 35.3228C31.4026 35.3875 31.3926 35.4571 31.3775 35.5168C31.3725 35.5417 31.3574 35.5616 31.3524 35.5815V35.5964C31.3323 35.6312 31.3222 35.6661 31.3021 35.6959V35.7059C31.3021 35.7059 31.2669 35.7407 31.2518 35.7606C31.2317 35.7904 31.2066 35.8203 31.1815 35.8451C31.1815 35.8451 31.1764 35.8551 31.1714 35.8601C31.1563 35.875 31.1312 35.8849 31.1111 35.8999C31.086 35.9198 31.0659 35.9397 31.0407 35.9546C31.0357 35.9546 31.0257 35.9596 31.0206 35.9645C31.0156 35.9645 31.0106 35.9745 31.0005 35.9794L11.0975 46.341V69.8846L21.2752 64.3581V52.2705C21.2752 51.9919 21.431 51.7382 21.6773 51.6089L41.6959 41.2125V18.032L31.3976 23.6679V35.3228H31.4026Z" fill="white"/>
<path d="M31.1714 35.8653C31.1714 35.8653 31.1765 35.8552 31.1815 35.8502C31.1815 35.8502 31.1765 35.8602 31.1714 35.8653Z" fill="white"/>
<path d="M31.1815 35.8501C31.2066 35.8252 31.2317 35.7953 31.2518 35.7655C31.2317 35.8003 31.2116 35.8302 31.1865 35.8501H31.1815Z" fill="white"/>
<path d="M31.0407 35.9595C31.0659 35.9446 31.086 35.9247 31.1111 35.9048C31.0809 35.9297 31.0508 35.9496 31.0206 35.9695C31.0257 35.9695 31.0357 35.9645 31.0407 35.9595Z" fill="white"/>
<path d="M31.3774 35.5169C31.3925 35.4522 31.4026 35.3875 31.4026 35.3229C31.4026 35.3577 31.3925 35.3925 31.3875 35.4273C31.3875 35.4572 31.3875 35.492 31.3774 35.5219V35.5169Z" fill="white"/>
<path d="M31.3021 35.6965C31.3021 35.6965 31.3123 35.6712 31.3174 35.6611C31.3123 35.6712 31.3072 35.6864 31.3021 35.6965Z" fill="white"/>
<path d="M31.3021 35.6959C31.3222 35.6661 31.3322 35.6313 31.3473 35.5964C31.3372 35.6163 31.3272 35.6412 31.3171 35.6611C31.3121 35.6711 31.3071 35.686 31.3021 35.6959V35.6959Z" fill="white"/>
<path d="M31.3775 35.5169C31.3875 35.487 31.3875 35.4572 31.3875 35.4224C31.3875 35.4522 31.3875 35.487 31.3724 35.5169H31.3775Z" fill="white"/>
<path d="M31.1815 35.8501C31.1815 35.8501 31.2267 35.7954 31.2468 35.7705C31.2267 35.8004 31.2066 35.8252 31.1815 35.8501Z" fill="white"/>
</svg>
